<!--?xml version="1.0" encoding="utf-8"?-->
<!-- Generator: Adobe Illustrator 18.0.0, SVG Export Plug-In . SVG Version: 6.00 Build 0)  -->

<svg version="1.1" id="_x31_0" xmlns="http://www.w3.org/2000/svg" xmlns:xlink="http://www.w3.org/1999/xlink" x="0px" y="0px" viewBox="0 0 512 512" style="width: 512px; height: 512px; opacity: 1;" xml:space="preserve">
<style type="text/css">
	.st0{fill:#374149;}
</style>
<rect x="70" y="45" width="370" height="370" fill="rgb(255, 255, 255)"></rect>
<g transform="scale(0.9 0.9) translate(25 25)">
    <g>
    	<path class="st0" d="M424.586,0H104.066H88.402C59.23,0,34.446,22.718,33.344,51.871c-0.137,3.637,0.054,7.102,0.582,10.57h-0.625
    		v416.859C33.301,497.359,47.942,512,66,512h346.098v-37.465h66.602V0H424.586z M453.722,77.594v22.102v337.379h-41.625V108.226
    		V91.578V74.926H104.066H87.414c-8.493,0-15.817-5.16-19.063-12.484c-1.125-2.539-1.75-5.371-1.75-8.328
    		c0-11.446,9.367-20.813,20.813-20.813h16.652h349.656V77.594z"></path>
    </g>

    <g transform="translate(70 135)  scale(0.6 0.6)" >
    	<path class="st0" d="M207.063,167.141c-1.031-0.609-2.344-0.641-3.406-0.031c-1.031,0.594-1.688,1.719-1.688,2.938v85.938v85.953
    		c0,1.234,0.656,2.344,1.688,2.938c1.063,0.625,2.375,0.594,3.406-0.031l144-85.953c1.031-0.594,1.641-1.703,1.641-2.906
    		c0-1.172-0.609-2.297-1.641-2.891L207.063,167.141z" style="fill: rgb(255, 255, 255);"></path>
    	<path class="st0" d="M256,0C114.625,0,0,114.625,0,256s114.625,256,256,256s256-114.625,256-256S397.375,0,256,0z M256,448
    		c-105.875,0-192-86.125-192-192S150.125,64,256,64s192,86.125,192,192S361.875,448,256,448z" style="fill: rgb(255, 255, 255);"></path>
    </g>
</g>
</svg>
